<svg xmlns="http://www.w3.org/2000/svg" fill="none" viewBox="0 0 16 16" preserveAspectRatio="xMidYMid meet" data-rnwibasecard--10zxxyc-hover="true" data-rnwi-handle="nearest" class="r-1rasi3h" style="vertical-align: middle; width: 1px; height: 1px;"><path fill="currentColor" fill-rule="evenodd" d="M4 .4A2.6 2.6 0 0 0 1.4 3v10A2.6 2.6 0 0 0 4 15.6h8a2.6 2.6 0 0 0 2.6-2.6V6.328a2.6 2.6 0 0 0-.761-1.838L10.51 1.162A2.6 2.6 0 0 0 8.672.4H4ZM2.6 3A1.4 1.4 0 0 1 4 1.6h3.9v2.9a2.6 2.6 0 0 0 2.6 2.6h2.9V13a1.4 1.4 0 0 1-1.4 1.4H4A1.4 1.4 0 0 1 2.6 13V3Zm10.733 2.9a1.399 1.399 0 0 0-.343-.562L9.662 2.01a1.4 1.4 0 0 0-.562-.343V4.5a1.4 1.4 0 0 0 1.4 1.4h2.833Z" clip-rule="evenodd"></path></svg>
